<svg width="48" height="90" viewBox="0 0 48 90" fill="none" xmlns="http://www.w3.org/2000/svg">
<path fill-rule="evenodd" clip-rule="evenodd" d="M48 0H0V24V69V72V85.3431C0 88.9068 4.30857 90.6914 6.82843 88.1716L21.1716 73.8284C22.7337 72.2663 25.2663 72.2663 26.8284 73.8284L41.1716 88.1716C43.6914 90.6914 48 88.9068 48 85.3431V72V69V24V0Z" fill="#F80F0F"/>
<path d="M24 51C27.866 51 31 47.866 31 44C31 40.134 27.866 37 24 37C20.134 37 17 40.134 17 44C17 47.866 20.134 51 24 51Z" stroke="white" stroke-width="2" stroke-linecap="round" stroke-linejoin="round"/>
<path d="M20.21 49.89L19 59L24 56L29 59L27.79 49.88" stroke="white" stroke-width="2" stroke-linecap="round" stroke-linejoin="round"/>
</svg>
